<?xml version="1.0" encoding="utf-8" standalone="no"?>
<!DOCTYPE svg PUBLIC "-//W3C//DTD SVG 1.1//EN"
  "http://www.w3.org/Graphics/SVG/1.1/DTD/svg11.dtd">
<svg xmlns:xlink="http://www.w3.org/1999/xlink" width="347.04pt" height="584.64pt" viewBox="0 0 347.04 584.64" xmlns="http://www.w3.org/2000/svg" version="1.1">
 <metadata>
  <rdf:RDF xmlns:dc="http://purl.org/dc/elements/1.1/" xmlns:cc="http://creativecommons.org/ns#" xmlns:rdf="http://www.w3.org/1999/02/22-rdf-syntax-ns#">
   <cc:Work>
    <dc:type rdf:resource="http://purl.org/dc/dcmitype/StillImage"/>
    <dc:date>2025-10-07T15:13:54.665229</dc:date>
    <dc:format>image/svg+xml</dc:format>
    <dc:creator>
     <cc:Agent>
      <dc:title>Matplotlib v3.10.6, https://matplotlib.org/</dc:title>
     </cc:Agent>
    </dc:creator>
   </cc:Work>
  </rdf:RDF>
 </metadata>
 <defs>
  <style type="text/css">*{stroke-linejoin: round; stroke-linecap: butt}</style>
 </defs>
 <g id="figure_1">
  <g id="patch_1">
   <path d="M 0 584.64 
L 347.04 584.64 
L 347.04 0 
L 0 0 
z
" style="fill: #ffffff"/>
  </g>
  <g id="axes_1">
   <g id="line2d_1">
    <path d="M 245.181462 238.86 
L 245.181462 505.872704 
" clip-path="url(#p367ef5f5e8)" style="fill: none; stroke: #000000; stroke-width: 0.5; stroke-linecap: square"/>
   </g>
   <g id="line2d_2">
    <path d="M 94.87858 209.16 
L 94.87858 322.075252 
" clip-path="url(#p367ef5f5e8)" style="fill: none; stroke: #000000; stroke-width: 0.5; stroke-linecap: square"/>
   </g>
   <g id="line2d_3">
    <path d="M 156.338549 238.86 
L 156.338549 293.568999 
" clip-path="url(#p367ef5f5e8)" style="fill: none; stroke: #000000; stroke-width: 0.5; stroke-linecap: square"/>
   </g>
   <g id="line2d_4">
    <path d="M 60.600242 179.46 
L 60.600242 374.207018 
" clip-path="url(#p367ef5f5e8)" style="fill: none; stroke: #000000; stroke-width: 0.5; stroke-linecap: square"/>
   </g>
   <g id="line2d_5">
    <path d="M 63.573741 238.86 
L 63.573741 366.117109 
" clip-path="url(#p367ef5f5e8)" style="fill: none; stroke: #000000; stroke-width: 0.5; stroke-linecap: square"/>
   </g>
   <g id="line2d_6">
    <path d="M 41.524282 149.76 
L 41.524282 357.263859 
" clip-path="url(#p367ef5f5e8)" style="fill: none; stroke: #000000; stroke-width: 0.5; stroke-linecap: square"/>
   </g>
   <g id="line2d_7">
    <path d="M 173.91789 209.16 
L 173.91789 292.320666 
" clip-path="url(#p367ef5f5e8)" style="fill: none; stroke: #000000; stroke-width: 0.5; stroke-linecap: square"/>
   </g>
   <g id="line2d_8">
    <path d="M 59.100568 120.06 
L 59.100568 379.156996 
" clip-path="url(#p367ef5f5e8)" style="fill: none; stroke: #000000; stroke-width: 0.5; stroke-linecap: square"/>
   </g>
   <g id="line2d_9">
    <path d="M 62.31395 60.66 
L 62.31395 369.327006 
" clip-path="url(#p367ef5f5e8)" style="fill: none; stroke: #000000; stroke-width: 0.5; stroke-linecap: square"/>
   </g>
   <g id="line2d_10">
    <path d="M 64.926162 90.36 
L 64.926162 362.945127 
" clip-path="url(#p367ef5f5e8)" style="fill: none; stroke: #000000; stroke-width: 0.5; stroke-linecap: square"/>
   </g>
   <g id="line2d_11">
    <path d="M 139.137316 179.46 
L 139.137316 297.404253 
" clip-path="url(#p367ef5f5e8)" style="fill: none; stroke: #000000; stroke-width: 0.5; stroke-linecap: square"/>
   </g>
   <g id="patch_2">
    <path d="M 173.52 529.92 
C 205.026128 529.92 235.246089 517.402483 257.524286 495.124286 
C 279.802483 472.846089 292.32 442.626128 292.32 411.12 
C 292.32 379.613872 279.802483 349.393911 257.524286 327.115714 
C 235.246089 304.837517 205.026128 292.32 173.52 292.32 
C 142.013872 292.32 111.793911 304.837517 89.515714 327.115714 
C 67.237517 349.393911 54.72 379.613872 54.72 411.12 
C 54.72 442.626128 67.237517 472.846089 89.515714 495.124286 
C 111.793911 517.402483 142.013872 529.92 173.52 529.92 
L 173.52 529.92 
z
" clip-path="url(#p367ef5f5e8)" style="fill: none; stroke: #000000; stroke-linejoin: miter"/>
   </g>
   <g id="patch_3">
    <path d="M 174.655299 284.00907 
C 187.617213 284.12484 200.485491 286.222585 212.813095 290.229429 
C 225.140699 294.236273 236.783204 300.105275 247.336156 307.632548 
C 257.889107 315.159821 267.228871 324.257179 275.030988 334.608584 
C 282.833106 344.959989 289.006171 356.444169 293.335733 368.662168 
C 297.665296 380.880167 300.100634 393.688846 300.557144 406.643236 
C 301.013655 419.597626 299.485989 432.54596 296.027218 445.038418 
C 292.568446 457.530877 287.219091 469.421104 280.164986 480.29604 
C 273.11088 491.170975 264.434668 500.903213 254.437755 509.154659 
C 244.440843 517.406105 233.24035 524.08009 221.225377 528.944762 
C 209.210403 533.809434 196.521711 536.807801 183.6001 537.835702 
C 170.678489 538.863602 157.675341 537.908993 145.042382 535.005038 
C 132.409423 532.101083 120.294652 527.281803 109.118934 520.714617 
C 97.943215 514.147431 87.837477 505.909278 79.152788 496.286347 
C 70.468099 486.663416 63.306205 475.768445 57.915907 463.979921 
C 52.52561 452.191396 48.970058 439.647427 47.372771 426.783785 
C 45.775484 413.920142 46.155175 400.887531 48.498653 388.138699 
L 48.498653 388.138699 
L 58.994158 379.540394 
L 64.856586 391.145598 
L 64.856586 391.145598 
C 62.819731 402.226359 62.48972 413.553769 63.878016 424.734318 
C 65.266312 435.914866 68.356651 446.817569 73.041677 457.06367 
C 77.726702 467.30977 83.951525 476.779231 91.4999 485.143087 
C 99.048274 493.506943 107.831766 500.667207 117.545241 506.375135 
C 127.258717 512.083062 137.788377 516.271783 148.768425 518.795781 
C 159.748474 521.319779 171.050275 522.149486 182.281208 521.256077 
C 193.512142 520.362668 204.540631 517.756611 214.983552 513.528438 
C 225.426473 509.300265 235.16148 503.499512 243.850386 496.327694 
C 252.539291 489.155876 260.080298 480.697016 266.211436 471.244969 
C 272.342574 461.792923 276.992014 451.458426 279.998236 440.600494 
C 283.004458 429.742563 284.332242 418.488404 283.935462 407.228981 
C 283.538682 395.969558 281.421987 384.836781 277.658908 374.217399 
C 273.89583 363.598016 268.530456 353.616439 261.749177 344.619424 
C 254.967897 335.622408 246.850158 327.715359 237.677967 321.172963 
C 228.505776 314.630567 218.386589 309.529471 207.671942 306.046887 
C 196.957296 302.564303 185.772718 300.741029 174.506755 300.640407 
L 174.506755 300.640407 
z
" clip-path="url(#p367ef5f5e8)" style="fill: #d1e9f1; stroke: #000000; stroke-linejoin: miter"/>
   </g>
   <g id="patch_4">
    <path d="M 57.614143 358.92508 
C 64.275537 344.132556 73.707609 330.751119 85.400032 319.504779 
C 97.092456 308.258438 110.830482 299.35375 125.870808 293.272506 
L 125.870808 293.272506 
L 138.756648 297.520047 
L 132.105282 308.691804 
L 132.105282 308.691804 
C 119.032849 313.977371 107.092321 321.716961 96.929748 331.491817 
C 86.767174 341.266674 78.569205 352.897269 72.779395 365.754322 
L 72.779395 365.754322 
z
" clip-path="url(#p367ef5f5e8)" style="fill: #ffd383; stroke: #000000; stroke-linejoin: miter"/>
   </g>
   <g id="patch_5">
    <path d="M 137.410302 289.240686 
C 141.489416 288.03215 145.626632 287.029157 149.806325 286.235497 
C 153.986018 285.441837 158.202922 284.858508 162.441111 284.487715 
L 162.441111 284.487715 
L 173.52 292.32 
L 163.890685 301.056425 
L 163.890685 301.056425 
C 160.207025 301.378703 156.541866 301.885708 152.909049 302.575525 
C 149.276231 303.265342 145.680334 304.137102 142.134935 305.187512 
L 142.134935 305.187512 
z
" clip-path="url(#p367ef5f5e8)" style="fill: #d1e9f1; stroke: #000000; stroke-linejoin: miter"/>
   </g>
   <g id="patch_6">
    <path d="M 51.284024 376.236716 
C 51.5112 375.440657 51.746148 374.646836 51.988833 373.855368 
C 52.231518 373.063899 52.481928 372.27482 52.740029 371.488244 
L 52.740029 371.488244 
L 62.174599 369.699696 
L 68.543016 376.673707 
L 68.543016 376.673707 
C 68.318685 377.357367 68.101039 378.043202 67.890107 378.731114 
C 67.679175 379.419026 67.474968 380.108982 67.277516 380.800884 
L 67.277516 380.800884 
z
" clip-path="url(#p367ef5f5e8)" style="fill: #118ab2; stroke: #000000; stroke-linejoin: miter"/>
   </g>
   <g id="patch_7">
    <path d="M 54.781001 365.737983 
C 54.966774 365.25192 55.155529 364.767003 55.347257 364.283259 
C 55.538985 363.799514 55.733682 363.316952 55.931335 362.835599 
L 55.931335 362.835599 
L 64.765422 363.309103 
L 71.316768 369.153184 
L 71.316768 369.153184 
C 71.144976 369.571556 70.975753 369.99098 70.809111 370.411431 
C 70.642469 370.831881 70.478411 371.253351 70.316945 371.675817 
L 70.316945 371.675817 
z
" clip-path="url(#p367ef5f5e8)" style="fill: #808080; stroke: #000000; stroke-linejoin: miter"/>
   </g>
   <g id="patch_8">
    <path d="M 33.073492 355.998808 
C 33.206825 355.659081 33.34139 355.31984 33.477185 354.98109 
C 33.612979 354.64234 33.750002 354.304084 33.888252 353.966328 
L 33.888252 353.966328 
L 42.382131 355.207453 
L 49.280728 360.266733 
L 49.280728 360.266733 
C 49.157719 360.567256 49.0358 360.868224 48.914975 361.169631 
C 48.79415 361.471038 48.674419 361.772883 48.555784 362.07516 
L 48.555784 362.07516 
z
" clip-path="url(#p367ef5f5e8)" style="fill: #808080; stroke: #000000; stroke-linejoin: miter"/>
   </g>
   <g id="patch_9">
    <path d="M 173.52 284.004 
C 173.61461 284.004 173.709219 284.004106 173.803828 284.004317 
C 173.898438 284.004528 173.993047 284.004845 174.087655 284.005267 
L 174.087655 284.005267 
L 174.581027 292.324738 
L 174.013382 300.637102 
L 174.013382 300.637102 
C 173.931153 300.636734 173.848922 300.636459 173.766692 300.636275 
C 173.684461 300.636092 173.602231 300.636 173.52 300.636 
L 173.52 300.636 
z
" clip-path="url(#p367ef5f5e8)" style="fill: #808080; stroke: #000000; stroke-linejoin: miter"/>
   </g>
   <g id="patch_10">
    <path d="M 50.977349 377.329821 
C 51.002498 377.238616 51.027749 377.147438 51.053102 377.056289 
C 51.078455 376.965139 51.10391 376.874018 51.129466 376.782926 
L 51.129466 376.782926 
L 59.28077 378.5188 
L 67.143181 381.275627 
L 67.143181 381.275627 
C 67.120968 381.354801 67.098844 381.434 67.076809 381.513223 
C 67.054773 381.592446 67.032826 381.671694 67.010967 381.750966 
L 67.010967 381.750966 
z
" clip-path="url(#p367ef5f5e8)" style="fill: #808080; stroke: #000000; stroke-linejoin: miter"/>
   </g>
   <g id="patch_11">
    <path d="M 54.38042 366.800275 
C 54.413407 366.711602 54.446492 366.622966 54.479676 366.534367 
C 54.51286 366.445768 54.546143 366.357206 54.579525 366.268681 
L 54.579525 366.268681 
L 62.548973 368.7069 
L 70.14183 372.137078 
L 70.14183 372.137078 
C 70.112816 372.21402 70.083888 372.290995 70.055045 372.368001 
C 70.026203 372.445008 69.997447 372.522046 69.968777 372.599117 
L 69.968777 372.599117 
z
" clip-path="url(#p367ef5f5e8)" style="fill: #808080; stroke: #000000; stroke-linejoin: miter"/>
   </g>
   <g id="patch_12">
    <path d="M 57.152602 359.962341 
C 57.190677 359.875731 57.228849 359.789164 57.267118 359.70264 
C 57.305387 359.616115 57.343752 359.529634 57.382214 359.443195 
L 57.382214 359.443195 
L 65.196769 362.339701 
L 72.577812 366.204646 
L 72.577812 366.204646 
C 72.544383 366.279775 72.511037 366.354941 72.477776 366.430145 
C 72.444514 366.505348 72.411336 366.580589 72.378243 366.655866 
L 72.378243 366.655866 
z
" clip-path="url(#p367ef5f5e8)" style="fill: #808080; stroke: #000000; stroke-linejoin: miter"/>
   </g>
   <g id="patch_13">
    <path d="M 136.323213 289.56805 
C 136.413682 289.540365 136.504181 289.512782 136.594711 289.485299 
C 136.685241 289.457816 136.775801 289.430435 136.866392 289.403154 
L 136.866392 289.403154 
L 139.772619 297.214099 
L 141.662191 305.328723 
L 141.662191 305.328723 
C 141.583453 305.352434 141.504742 305.376233 141.426057 305.40012 
C 141.347372 305.424007 141.268714 305.447981 141.190083 305.472044 
L 141.190083 305.472044 
z
" clip-path="url(#p367ef5f5e8)" style="fill: #808080; stroke: #000000; stroke-linejoin: miter"/>
   </g>
   <g id="text_1">
    <g id="patch_14">
     <path d="M 230.716462 247.482969 
L 259.646462 247.482969 
Q 262.946462 247.482969 262.946462 244.182969 
L 262.946462 233.537031 
Q 262.946462 230.237031 259.646462 230.237031 
L 230.716462 230.237031 
Q 227.416462 230.237031 227.416462 233.537031 
L 227.416462 244.182969 
Q 227.416462 247.482969 230.716462 247.482969 
z
" style="fill: #ebf6f9; stroke: #808080; stroke-width: 0.3; stroke-linejoin: miter"/>
    </g>
    <!-- DVL1 -->
    <g transform="translate(230.716462 241.895312) scale(0.11 -0.11)">
     <defs>
      <path id="DejaVuSans-44" d="M 1259 4147 
L 1259 519 
L 2022 519 
Q 2988 519 3436 956 
Q 3884 1394 3884 2338 
Q 3884 3275 3436 3711 
Q 2988 4147 2022 4147 
L 1259 4147 
z
M 628 4666 
L 1925 4666 
Q 3281 4666 3915 4102 
Q 4550 3538 4550 2338 
Q 4550 1131 3912 565 
Q 3275 0 1925 0 
L 628 0 
L 628 4666 
z
" transform="scale(0.015625)"/>
      <path id="DejaVuSans-56" d="M 1831 0 
L 50 4666 
L 709 4666 
L 2188 738 
L 3669 4666 
L 4325 4666 
L 2547 0 
L 1831 0 
z
" transform="scale(0.015625)"/>
      <path id="DejaVuSans-4c" d="M 628 4666 
L 1259 4666 
L 1259 531 
L 3531 531 
L 3531 0 
L 628 0 
L 628 4666 
z
" transform="scale(0.015625)"/>
      <path id="DejaVuSans-31" d="M 794 531 
L 1825 531 
L 1825 4091 
L 703 3866 
L 703 4441 
L 1819 4666 
L 2450 4666 
L 2450 531 
L 3481 531 
L 3481 0 
L 794 0 
L 794 531 
z
" transform="scale(0.015625)"/>
     </defs>
     <use xlink:href="#DejaVuSans-44"/>
     <use xlink:href="#DejaVuSans-56" transform="translate(75.251953 0)"/>
     <use xlink:href="#DejaVuSans-4c" transform="translate(143.660156 0)"/>
     <use xlink:href="#DejaVuSans-31" transform="translate(199.373047 0)"/>
    </g>
   </g>
   <g id="text_2">
    <g id="patch_15">
     <path d="M 74.219205 217.782969 
L 115.537955 217.782969 
Q 118.837955 217.782969 118.837955 214.482969 
L 118.837955 203.837031 
Q 118.837955 200.537031 115.537955 200.537031 
L 74.219205 200.537031 
Q 70.919205 200.537031 70.919205 203.837031 
L 70.919205 214.482969 
Q 70.919205 217.782969 74.219205 217.782969 
z
" style="fill: #fff6e5; stroke: #808080; stroke-width: 0.3; stroke-linejoin: miter"/>
    </g>
    <!-- EcPanD -->
    <g transform="translate(74.219205 212.195312) scale(0.11 -0.11)">
     <defs>
      <path id="DejaVuSans-45" d="M 628 4666 
L 3578 4666 
L 3578 4134 
L 1259 4134 
L 1259 2753 
L 3481 2753 
L 3481 2222 
L 1259 2222 
L 1259 531 
L 3634 531 
L 3634 0 
L 628 0 
L 628 4666 
z
" transform="scale(0.015625)"/>
      <path id="DejaVuSans-63" d="M 3122 3366 
L 3122 2828 
Q 2878 2963 2633 3030 
Q 2388 3097 2138 3097 
Q 1578 3097 1268 2742 
Q 959 2388 959 1747 
Q 959 1106 1268 751 
Q 1578 397 2138 397 
Q 2388 397 2633 464 
Q 2878 531 3122 666 
L 3122 134 
Q 2881 22 2623 -34 
Q 2366 -91 2075 -91 
Q 1284 -91 818 406 
Q 353 903 353 1747 
Q 353 2603 823 3093 
Q 1294 3584 2113 3584 
Q 2378 3584 2631 3529 
Q 2884 3475 3122 3366 
z
" transform="scale(0.015625)"/>
      <path id="DejaVuSans-50" d="M 1259 4147 
L 1259 2394 
L 2053 2394 
Q 2494 2394 2734 2622 
Q 2975 2850 2975 3272 
Q 2975 3691 2734 3919 
Q 2494 4147 2053 4147 
L 1259 4147 
z
M 628 4666 
L 2053 4666 
Q 2838 4666 3239 4311 
Q 3641 3956 3641 3272 
Q 3641 2581 3239 2228 
Q 2838 1875 2053 1875 
L 1259 1875 
L 1259 0 
L 628 0 
L 628 4666 
z
" transform="scale(0.015625)"/>
      <path id="DejaVuSans-61" d="M 2194 1759 
Q 1497 1759 1228 1600 
Q 959 1441 959 1056 
Q 959 750 1161 570 
Q 1363 391 1709 391 
Q 2188 391 2477 730 
Q 2766 1069 2766 1631 
L 2766 1759 
L 2194 1759 
z
M 3341 1997 
L 3341 0 
L 2766 0 
L 2766 531 
Q 2569 213 2275 61 
Q 1981 -91 1556 -91 
Q 1019 -91 701 211 
Q 384 513 384 1019 
Q 384 1609 779 1909 
Q 1175 2209 1959 2209 
L 2766 2209 
L 2766 2266 
Q 2766 2663 2505 2880 
Q 2244 3097 1772 3097 
Q 1472 3097 1187 3025 
Q 903 2953 641 2809 
L 641 3341 
Q 956 3463 1253 3523 
Q 1550 3584 1831 3584 
Q 2591 3584 2966 3190 
Q 3341 2797 3341 1997 
z
" transform="scale(0.015625)"/>
      <path id="DejaVuSans-6e" d="M 3513 2113 
L 3513 0 
L 2938 0 
L 2938 2094 
Q 2938 2591 2744 2837 
Q 2550 3084 2163 3084 
Q 1697 3084 1428 2787 
Q 1159 2491 1159 1978 
L 1159 0 
L 581 0 
L 581 3500 
L 1159 3500 
L 1159 2956 
Q 1366 3272 1645 3428 
Q 1925 3584 2291 3584 
Q 2894 3584 3203 3211 
Q 3513 2838 3513 2113 
z
" transform="scale(0.015625)"/>
     </defs>
     <use xlink:href="#DejaVuSans-45"/>
     <use xlink:href="#DejaVuSans-63" transform="translate(63.183594 0)"/>
     <use xlink:href="#DejaVuSans-50" transform="translate(118.164062 0)"/>
     <use xlink:href="#DejaVuSans-61" transform="translate(173.966797 0)"/>
     <use xlink:href="#DejaVuSans-6e" transform="translate(235.246094 0)"/>
     <use xlink:href="#DejaVuSans-44" transform="translate(298.625 0)"/>
    </g>
   </g>
   <g id="text_3">
    <g id="patch_16">
     <path d="M 138.567533 247.482969 
L 174.109564 247.482969 
Q 177.409564 247.482969 177.409564 244.182969 
L 177.409564 233.537031 
Q 177.409564 230.237031 174.109564 230.237031 
L 138.567533 230.237031 
Q 135.267533 230.237031 135.267533 233.537031 
L 135.267533 244.182969 
Q 135.267533 247.482969 138.567533 247.482969 
z
" style="fill: #ebf6f9; stroke: #808080; stroke-width: 0.3; stroke-linejoin: miter"/>
    </g>
    <!-- B0015 -->
    <g transform="translate(138.567533 241.895312) scale(0.11 -0.11)">
     <defs>
      <path id="DejaVuSans-42" d="M 1259 2228 
L 1259 519 
L 2272 519 
Q 2781 519 3026 730 
Q 3272 941 3272 1375 
Q 3272 1813 3026 2020 
Q 2781 2228 2272 2228 
L 1259 2228 
z
M 1259 4147 
L 1259 2741 
L 2194 2741 
Q 2656 2741 2882 2914 
Q 3109 3088 3109 3444 
Q 3109 3797 2882 3972 
Q 2656 4147 2194 4147 
L 1259 4147 
z
M 628 4666 
L 2241 4666 
Q 2963 4666 3353 4366 
Q 3744 4066 3744 3513 
Q 3744 3084 3544 2831 
Q 3344 2578 2956 2516 
Q 3422 2416 3680 2098 
Q 3938 1781 3938 1306 
Q 3938 681 3513 340 
Q 3088 0 2303 0 
L 628 0 
L 628 4666 
z
" transform="scale(0.015625)"/>
      <path id="DejaVuSans-30" d="M 2034 4250 
Q 1547 4250 1301 3770 
Q 1056 3291 1056 2328 
Q 1056 1369 1301 889 
Q 1547 409 2034 409 
Q 2525 409 2770 889 
Q 3016 1369 3016 2328 
Q 3016 3291 2770 3770 
Q 2525 4250 2034 4250 
z
M 2034 4750 
Q 2819 4750 3233 4129 
Q 3647 3509 3647 2328 
Q 3647 1150 3233 529 
Q 2819 -91 2034 -91 
Q 1250 -91 836 529 
Q 422 1150 422 2328 
Q 422 3509 836 4129 
Q 1250 4750 2034 4750 
z
" transform="scale(0.015625)"/>
      <path id="DejaVuSans-35" d="M 691 4666 
L 3169 4666 
L 3169 4134 
L 1269 4134 
L 1269 2991 
Q 1406 3038 1543 3061 
Q 1681 3084 1819 3084 
Q 2600 3084 3056 2656 
Q 3513 2228 3513 1497 
Q 3513 744 3044 326 
Q 2575 -91 1722 -91 
Q 1428 -91 1123 -41 
Q 819 9 494 109 
L 494 744 
Q 775 591 1075 516 
Q 1375 441 1709 441 
Q 2250 441 2565 725 
Q 2881 1009 2881 1497 
Q 2881 1984 2565 2268 
Q 2250 2553 1709 2553 
Q 1456 2553 1204 2497 
Q 953 2441 691 2322 
L 691 4666 
z
" transform="scale(0.015625)"/>
     </defs>
     <use xlink:href="#DejaVuSans-42"/>
     <use xlink:href="#DejaVuSans-30" transform="translate(68.603516 0)"/>
     <use xlink:href="#DejaVuSans-30" transform="translate(132.226562 0)"/>
     <use xlink:href="#DejaVuSans-31" transform="translate(195.849609 0)"/>
     <use xlink:href="#DejaVuSans-35" transform="translate(259.472656 0)"/>
    </g>
   </g>
   <g id="text_4">
    <g id="patch_17">
     <path d="M 41.480867 188.082969 
L 79.719617 188.082969 
Q 83.019617 188.082969 83.019617 184.782969 
L 83.019617 174.137031 
Q 83.019617 170.837031 79.719617 170.837031 
L 41.480867 170.837031 
Q 38.180867 170.837031 38.180867 174.137031 
L 38.180867 184.782969 
Q 38.180867 188.082969 41.480867 188.082969 
z
" style="fill: #e8f8fd; stroke: #808080; stroke-width: 0.3; stroke-linejoin: miter"/>
    </g>
    <!-- J23100 -->
    <g transform="translate(41.480867 182.495313) scale(0.11 -0.11)">
     <defs>
      <path id="DejaVuSans-4a" d="M 628 4666 
L 1259 4666 
L 1259 325 
Q 1259 -519 939 -900 
Q 619 -1281 -91 -1281 
L -331 -1281 
L -331 -750 
L -134 -750 
Q 284 -750 456 -515 
Q 628 -281 628 325 
L 628 4666 
z
" transform="scale(0.015625)"/>
      <path id="DejaVuSans-32" d="M 1228 531 
L 3431 531 
L 3431 0 
L 469 0 
L 469 531 
Q 828 903 1448 1529 
Q 2069 2156 2228 2338 
Q 2531 2678 2651 2914 
Q 2772 3150 2772 3378 
Q 2772 3750 2511 3984 
Q 2250 4219 1831 4219 
Q 1534 4219 1204 4116 
Q 875 4013 500 3803 
L 500 4441 
Q 881 4594 1212 4672 
Q 1544 4750 1819 4750 
Q 2544 4750 2975 4387 
Q 3406 4025 3406 3419 
Q 3406 3131 3298 2873 
Q 3191 2616 2906 2266 
Q 2828 2175 2409 1742 
Q 1991 1309 1228 531 
z
" transform="scale(0.015625)"/>
      <path id="DejaVuSans-33" d="M 2597 2516 
Q 3050 2419 3304 2112 
Q 3559 1806 3559 1356 
Q 3559 666 3084 287 
Q 2609 -91 1734 -91 
Q 1441 -91 1130 -33 
Q 819 25 488 141 
L 488 750 
Q 750 597 1062 519 
Q 1375 441 1716 441 
Q 2309 441 2620 675 
Q 2931 909 2931 1356 
Q 2931 1769 2642 2001 
Q 2353 2234 1838 2234 
L 1294 2234 
L 1294 2753 
L 1863 2753 
Q 2328 2753 2575 2939 
Q 2822 3125 2822 3475 
Q 2822 3834 2567 4026 
Q 2313 4219 1838 4219 
Q 1578 4219 1281 4162 
Q 984 4106 628 3988 
L 628 4550 
Q 988 4650 1302 4700 
Q 1616 4750 1894 4750 
Q 2613 4750 3031 4423 
Q 3450 4097 3450 3541 
Q 3450 3153 3228 2886 
Q 3006 2619 2597 2516 
z
" transform="scale(0.015625)"/>
     </defs>
     <use xlink:href="#DejaVuSans-4a"/>
     <use xlink:href="#DejaVuSans-32" transform="translate(29.492188 0)"/>
     <use xlink:href="#DejaVuSans-33" transform="translate(93.115234 0)"/>
     <use xlink:href="#DejaVuSans-31" transform="translate(156.738281 0)"/>
     <use xlink:href="#DejaVuSans-30" transform="translate(220.361328 0)"/>
     <use xlink:href="#DejaVuSans-30" transform="translate(283.984375 0)"/>
    </g>
   </g>
   <g id="text_5">
    <g id="patch_18">
     <path d="M 40.445382 247.482969 
L 86.702101 247.482969 
Q 90.002101 247.482969 90.002101 244.182969 
L 90.002101 233.537031 
Q 90.002101 230.237031 86.702101 230.237031 
L 40.445382 230.237031 
Q 37.145382 230.237031 37.145382 233.537031 
L 37.145382 244.182969 
Q 37.145382 247.482969 40.445382 247.482969 
z
" style="fill: #f2f2f2; stroke: #808080; stroke-width: 0.3; stroke-linejoin: miter"/>
    </g>
    <!-- B0032m -->
    <g transform="translate(40.445382 241.895312) scale(0.11 -0.11)">
     <defs>
      <path id="DejaVuSans-6d" d="M 3328 2828 
Q 3544 3216 3844 3400 
Q 4144 3584 4550 3584 
Q 5097 3584 5394 3201 
Q 5691 2819 5691 2113 
L 5691 0 
L 5113 0 
L 5113 2094 
Q 5113 2597 4934 2840 
Q 4756 3084 4391 3084 
Q 3944 3084 3684 2787 
Q 3425 2491 3425 1978 
L 3425 0 
L 2847 0 
L 2847 2094 
Q 2847 2600 2669 2842 
Q 2491 3084 2119 3084 
Q 1678 3084 1418 2786 
Q 1159 2488 1159 1978 
L 1159 0 
L 581 0 
L 581 3500 
L 1159 3500 
L 1159 2956 
Q 1356 3278 1631 3431 
Q 1906 3584 2284 3584 
Q 2666 3584 2933 3390 
Q 3200 3197 3328 2828 
z
" transform="scale(0.015625)"/>
     </defs>
     <use xlink:href="#DejaVuSans-42"/>
     <use xlink:href="#DejaVuSans-30" transform="translate(68.603516 0)"/>
     <use xlink:href="#DejaVuSans-30" transform="translate(132.226562 0)"/>
     <use xlink:href="#DejaVuSans-33" transform="translate(195.849609 0)"/>
     <use xlink:href="#DejaVuSans-32" transform="translate(259.472656 0)"/>
     <use xlink:href="#DejaVuSans-6d" transform="translate(323.095703 0)"/>
    </g>
   </g>
   <g id="text_6">
    <g id="patch_19">
     <path d="M 23.753266 158.382969 
L 59.295297 158.382969 
Q 62.595297 158.382969 62.595297 155.082969 
L 62.595297 144.437031 
Q 62.595297 141.137031 59.295297 141.137031 
L 23.753266 141.137031 
Q 20.453266 141.137031 20.453266 144.437031 
L 20.453266 155.082969 
Q 20.453266 158.382969 23.753266 158.382969 
z
" style="fill: #f2f2f2; stroke: #808080; stroke-width: 0.3; stroke-linejoin: miter"/>
    </g>
    <!-- B0032 -->
    <g transform="translate(23.753266 152.795312) scale(0.11 -0.11)">
     <use xlink:href="#DejaVuSans-42"/>
     <use xlink:href="#DejaVuSans-30" transform="translate(68.603516 0)"/>
     <use xlink:href="#DejaVuSans-30" transform="translate(132.226562 0)"/>
     <use xlink:href="#DejaVuSans-33" transform="translate(195.849609 0)"/>
     <use xlink:href="#DejaVuSans-32" transform="translate(259.472656 0)"/>
    </g>
   </g>
   <g id="text_7">
    <g id="patch_20">
     <path d="M 158.615858 217.782969 
L 189.219921 217.782969 
Q 192.519921 217.782969 192.519921 214.482969 
L 192.519921 203.837031 
Q 192.519921 200.537031 189.219921 200.537031 
L 158.615858 200.537031 
Q 155.315858 200.537031 155.315858 203.837031 
L 155.315858 214.482969 
Q 155.315858 217.782969 158.615858 217.782969 
z
" style="fill: #f2f2f2; stroke: #808080; stroke-width: 0.3; stroke-linejoin: miter"/>
    </g>
    <!-- CGCT -->
    <g transform="translate(158.615858 212.195312) scale(0.11 -0.11)">
     <defs>
      <path id="DejaVuSans-43" d="M 4122 4306 
L 4122 3641 
Q 3803 3938 3442 4084 
Q 3081 4231 2675 4231 
Q 1875 4231 1450 3742 
Q 1025 3253 1025 2328 
Q 1025 1406 1450 917 
Q 1875 428 2675 428 
Q 3081 428 3442 575 
Q 3803 722 4122 1019 
L 4122 359 
Q 3791 134 3420 21 
Q 3050 -91 2638 -91 
Q 1578 -91 968 557 
Q 359 1206 359 2328 
Q 359 3453 968 4101 
Q 1578 4750 2638 4750 
Q 3056 4750 3426 4639 
Q 3797 4528 4122 4306 
z
" transform="scale(0.015625)"/>
      <path id="DejaVuSans-47" d="M 3809 666 
L 3809 1919 
L 2778 1919 
L 2778 2438 
L 4434 2438 
L 4434 434 
Q 4069 175 3628 42 
Q 3188 -91 2688 -91 
Q 1594 -91 976 548 
Q 359 1188 359 2328 
Q 359 3472 976 4111 
Q 1594 4750 2688 4750 
Q 3144 4750 3555 4637 
Q 3966 4525 4313 4306 
L 4313 3634 
Q 3963 3931 3569 4081 
Q 3175 4231 2741 4231 
Q 1884 4231 1454 3753 
Q 1025 3275 1025 2328 
Q 1025 1384 1454 906 
Q 1884 428 2741 428 
Q 3075 428 3337 486 
Q 3600 544 3809 666 
z
" transform="scale(0.015625)"/>
      <path id="DejaVuSans-54" d="M -19 4666 
L 3928 4666 
L 3928 4134 
L 2272 4134 
L 2272 0 
L 1638 0 
L 1638 4134 
L -19 4134 
L -19 4666 
z
" transform="scale(0.015625)"/>
     </defs>
     <use xlink:href="#DejaVuSans-43"/>
     <use xlink:href="#DejaVuSans-47" transform="translate(69.824219 0)"/>
     <use xlink:href="#DejaVuSans-43" transform="translate(147.314453 0)"/>
     <use xlink:href="#DejaVuSans-54" transform="translate(217.138672 0)"/>
    </g>
   </g>
   <g id="text_8">
    <g id="patch_21">
     <path d="M 42.649552 128.682969 
L 75.551584 128.682969 
Q 78.851584 128.682969 78.851584 125.382969 
L 78.851584 114.737031 
Q 78.851584 111.437031 75.551584 111.437031 
L 42.649552 111.437031 
Q 39.349552 111.437031 39.349552 114.737031 
L 39.349552 125.382969 
Q 39.349552 128.682969 42.649552 128.682969 
z
" style="fill: #f2f2f2; stroke: #808080; stroke-width: 0.3; stroke-linejoin: miter"/>
    </g>
    <!-- GGAG -->
    <g transform="translate(42.649552 123.095313) scale(0.11 -0.11)">
     <defs>
      <path id="DejaVuSans-41" d="M 2188 4044 
L 1331 1722 
L 3047 1722 
L 2188 4044 
z
M 1831 4666 
L 2547 4666 
L 4325 0 
L 3669 0 
L 3244 1197 
L 1141 1197 
L 716 0 
L 50 0 
L 1831 4666 
z
" transform="scale(0.015625)"/>
     </defs>
     <use xlink:href="#DejaVuSans-47"/>
     <use xlink:href="#DejaVuSans-47" transform="translate(77.490234 0)"/>
     <use xlink:href="#DejaVuSans-41" transform="translate(154.980469 0)"/>
     <use xlink:href="#DejaVuSans-47" transform="translate(221.638672 0)"/>
    </g>
   </g>
   <g id="text_9">
    <g id="patch_22">
     <path d="M 48.514965 69.282969 
L 76.112934 69.282969 
Q 79.412934 69.282969 79.412934 65.982969 
L 79.412934 55.337031 
Q 79.412934 52.037031 76.112934 52.037031 
L 48.514965 52.037031 
Q 45.214965 52.037031 45.214965 55.337031 
L 45.214965 65.982969 
Q 45.214965 69.282969 48.514965 69.282969 
z
" style="fill: #f2f2f2; stroke: #808080; stroke-width: 0.3; stroke-linejoin: miter"/>
    </g>
    <!-- TACT -->
    <g transform="translate(48.514965 63.695312) scale(0.11 -0.11)">
     <use xlink:href="#DejaVuSans-54"/>
     <use xlink:href="#DejaVuSans-41" transform="translate(53.333984 0)"/>
     <use xlink:href="#DejaVuSans-43" transform="translate(119.992188 0)"/>
     <use xlink:href="#DejaVuSans-54" transform="translate(189.816406 0)"/>
    </g>
   </g>
   <g id="text_10">
    <g id="patch_23">
     <path d="M 50.055537 98.982969 
L 79.796787 98.982969 
Q 83.096787 98.982969 83.096787 95.682969 
L 83.096787 85.037031 
Q 83.096787 81.737031 79.796787 81.737031 
L 50.055537 81.737031 
Q 46.755537 81.737031 46.755537 85.037031 
L 46.755537 95.682969 
Q 46.755537 98.982969 50.055537 98.982969 
z
" style="fill: #f2f2f2; stroke: #808080; stroke-width: 0.3; stroke-linejoin: miter"/>
    </g>
    <!-- AATG -->
    <g transform="translate(50.055537 93.395312) scale(0.11 -0.11)">
     <use xlink:href="#DejaVuSans-41"/>
     <use xlink:href="#DejaVuSans-41" transform="translate(71.158203 0)"/>
     <use xlink:href="#DejaVuSans-54" transform="translate(131.816406 0)"/>
     <use xlink:href="#DejaVuSans-47" transform="translate(192.900391 0)"/>
    </g>
   </g>
   <g id="text_11">
    <g id="patch_24">
     <path d="M 123.788019 188.082969 
L 154.486613 188.082969 
Q 157.786613 188.082969 157.786613 184.782969 
L 157.786613 174.137031 
Q 157.786613 170.837031 154.486613 170.837031 
L 123.788019 170.837031 
Q 120.488019 170.837031 120.488019 174.137031 
L 120.488019 184.782969 
Q 120.488019 188.082969 123.788019 188.082969 
z
" style="fill: #f2f2f2; stroke: #808080; stroke-width: 0.3; stroke-linejoin: miter"/>
    </g>
    <!-- AGGT -->
    <g transform="translate(123.788019 182.495313) scale(0.11 -0.11)">
     <use xlink:href="#DejaVuSans-41"/>
     <use xlink:href="#DejaVuSans-47" transform="translate(66.658203 0)"/>
     <use xlink:href="#DejaVuSans-47" transform="translate(144.148438 0)"/>
     <use xlink:href="#DejaVuSans-54" transform="translate(218.013672 0)"/>
    </g>
   </g>
  </g>
 </g>
 <defs>
  <clipPath id="p367ef5f5e8">
   <rect x="7.2" y="7.2" width="332.64" height="570.24"/>
  </clipPath>
 </defs>
</svg>
